<?xml version="1.0" encoding="utf-8" standalone="no"?>
<!DOCTYPE svg PUBLIC "-//W3C//DTD SVG 1.1//EN"
  "http://www.w3.org/Graphics/SVG/1.1/DTD/svg11.dtd">
<svg xmlns:xlink="http://www.w3.org/1999/xlink" width="451.038322pt" height="337.39353pt" viewBox="0 0 451.038322 337.39353" xmlns="http://www.w3.org/2000/svg" version="1.1">
 <metadata>
  <rdf:RDF xmlns:dc="http://purl.org/dc/elements/1.1/" xmlns:cc="http://creativecommons.org/ns#" xmlns:rdf="http://www.w3.org/1999/02/22-rdf-syntax-ns#">
   <cc:Work>
    <dc:type rdf:resource="http://purl.org/dc/dcmitype/StillImage"/>
    <dc:date>2026-10-08T13:36:04.467932</dc:date>
    <dc:format>image/svg+xml</dc:format>
    <dc:creator>
     <cc:Agent>
      <dc:title>Matplotlib v3.8.0, https://matplotlib.org/</dc:title>
     </cc:Agent>
    </dc:creator>
   </cc:Work>
  </rdf:RDF>
 </metadata>
 <defs>
  <style type="text/css">*{stroke-linejoin: round; stroke-linecap: butt}</style>
 </defs>
 <g id="figure_1">
  <g id="patch_1">
   <path d="M 0 337.39353 
L 451.038322 337.39353 
L 451.038322 0 
L 0 0 
z
" style="fill: #ffffff"/>
  </g>
  <g id="axes_1">
   <g id="patch_2">
    <path d="M 11.017937 330.19353 
L 443.838322 330.19353 
L 443.838322 7.2 
L 11.017937 7.2 
z
" style="fill: #ffffff"/>
   </g>
   <g id="matplotlib.axis_1">
    <g id="xtick_1">
     <g id="line2d_1">
      <defs>
       <path id="m009e10e4c5" d="M 0 0 
L 0 3.5 
" style="stroke: #000000; stroke-width: 0.8"/>
      </defs>
      <g>
       <use xlink:href="#m009e10e4c5" x="19.341406" y="168.698531" style="stroke: #000000; stroke-width: 0.8"/>
      </g>
     </g>
     <g id="text_1">
      <!-- −1.0 -->
      <g transform="translate(7.2 183.296969) scale(0.1 -0.1)">
       <defs>
        <path id="DejaVuSans-2212" d="M 678 2272 
L 4684 2272 
L 4684 1741 
L 678 1741 
L 678 2272 
z
" transform="scale(0.015625)"/>
        <path id="DejaVuSans-31" d="M 794 531 
L 1825 531 
L 1825 4091 
L 703 3866 
L 703 4441 
L 1819 4666 
L 2450 4666 
L 2450 531 
L 3481 531 
L 3481 0 
L 794 0 
L 794 531 
z
" transform="scale(0.015625)"/>
        <path id="DejaVuSans-2e" d="M 684 794 
L 1344 794 
L 1344 0 
L 684 0 
L 684 794 
z
" transform="scale(0.015625)"/>
        <path id="DejaVuSans-30" d="M 2034 4250 
Q 1547 4250 1301 3770 
Q 1056 3291 1056 2328 
Q 1056 1369 1301 889 
Q 1547 409 2034 409 
Q 2525 409 2770 889 
Q 3016 1369 3016 2328 
Q 3016 3291 2770 3770 
Q 2525 4250 2034 4250 
z
M 2034 4750 
Q 2819 4750 3233 4129 
Q 3647 3509 3647 2328 
Q 3647 1150 3233 529 
Q 2819 -91 2034 -91 
Q 1250 -91 836 529 
Q 422 1150 422 2328 
Q 422 3509 836 4129 
Q 1250 4750 2034 4750 
z
" transform="scale(0.015625)"/>
       </defs>
       <use xlink:href="#DejaVuSans-2212"/>
       <use xlink:href="#DejaVuSans-31" x="83.789062"/>
       <use xlink:href="#DejaVuSans-2e" x="147.412109"/>
       <use xlink:href="#DejaVuSans-30" x="179.199219"/>
      </g>
     </g>
    </g>
    <g id="xtick_2">
     <g id="line2d_2">
      <g>
       <use xlink:href="#m009e10e4c5" x="123.384768" y="168.698531" style="stroke: #000000; stroke-width: 0.8"/>
      </g>
     </g>
     <g id="text_2">
      <!-- −0.5 -->
      <g transform="translate(111.243362 183.296969) scale(0.1 -0.1)">
       <defs>
        <path id="DejaVuSans-35" d="M 691 4666 
L 3169 4666 
L 3169 4134 
L 1269 4134 
L 1269 2991 
Q 1406 3038 1543 3061 
Q 1681 3084 1819 3084 
Q 2600 3084 3056 2656 
Q 3513 2228 3513 1497 
Q 3513 744 3044 326 
Q 2575 -91 1722 -91 
Q 1428 -91 1123 -41 
Q 819 9 494 109 
L 494 744 
Q 775 591 1075 516 
Q 1375 441 1709 441 
Q 2250 441 2565 725 
Q 2881 1009 2881 1497 
Q 2881 1984 2565 2268 
Q 2250 2553 1709 2553 
Q 1456 2553 1204 2497 
Q 953 2441 691 2322 
L 691 4666 
z
" transform="scale(0.015625)"/>
       </defs>
       <use xlink:href="#DejaVuSans-2212"/>
       <use xlink:href="#DejaVuSans-30" x="83.789062"/>
       <use xlink:href="#DejaVuSans-2e" x="147.412109"/>
       <use xlink:href="#DejaVuSans-35" x="179.199219"/>
      </g>
     </g>
    </g>
    <g id="xtick_3">
     <g id="line2d_3">
      <g>
       <use xlink:href="#m009e10e4c5" x="227.42813" y="168.698531" style="stroke: #000000; stroke-width: 0.8"/>
      </g>
     </g>
    </g>
    <g id="xtick_4">
     <g id="line2d_4">
      <g>
       <use xlink:href="#m009e10e4c5" x="331.471491" y="168.698531" style="stroke: #000000; stroke-width: 0.8"/>
      </g>
     </g>
     <g id="text_3">
      <!-- 0.5 -->
      <g transform="translate(323.519929 183.296969) scale(0.1 -0.1)">
       <use xlink:href="#DejaVuSans-30"/>
       <use xlink:href="#DejaVuSans-2e" x="63.623047"/>
       <use xlink:href="#DejaVuSans-35" x="95.410156"/>
      </g>
     </g>
    </g>
    <g id="xtick_5">
     <g id="line2d_5">
      <g>
       <use xlink:href="#m009e10e4c5" x="435.514853" y="168.698531" style="stroke: #000000; stroke-width: 0.8"/>
      </g>
     </g>
     <g id="text_4">
      <!-- 1.0 -->
      <g transform="translate(427.56329 183.296969) scale(0.1 -0.1)">
       <use xlink:href="#DejaVuSans-31"/>
       <use xlink:href="#DejaVuSans-2e" x="63.623047"/>
       <use xlink:href="#DejaVuSans-30" x="95.410156"/>
      </g>
     </g>
    </g>
    <g id="xtick_6">
     <g id="line2d_6">
      <defs>
       <path id="m617d890b62" d="M 0 0 
L 0 2 
" style="stroke: #000000; stroke-width: 0.6"/>
      </defs>
      <g>
       <use xlink:href="#m617d890b62" x="40.150079" y="168.698531" style="stroke: #000000; stroke-width: 0.6"/>
      </g>
     </g>
    </g>
    <g id="xtick_7">
     <g id="line2d_7">
      <g>
       <use xlink:href="#m617d890b62" x="60.958751" y="168.698531" style="stroke: #000000; stroke-width: 0.6"/>
      </g>
     </g>
    </g>
    <g id="xtick_8">
     <g id="line2d_8">
      <g>
       <use xlink:href="#m617d890b62" x="81.767423" y="168.698531" style="stroke: #000000; stroke-width: 0.6"/>
      </g>
     </g>
    </g>
    <g id="xtick_9">
     <g id="line2d_9">
      <g>
       <use xlink:href="#m617d890b62" x="102.576096" y="168.698531" style="stroke: #000000; stroke-width: 0.6"/>
      </g>
     </g>
    </g>
    <g id="xtick_10">
     <g id="line2d_10">
      <g>
       <use xlink:href="#m617d890b62" x="144.19344" y="168.698531" style="stroke: #000000; stroke-width: 0.6"/>
      </g>
     </g>
    </g>
    <g id="xtick_11">
     <g id="line2d_11">
      <g>
       <use xlink:href="#m617d890b62" x="165.002113" y="168.698531" style="stroke: #000000; stroke-width: 0.6"/>
      </g>
     </g>
    </g>
    <g id="xtick_12">
     <g id="line2d_12">
      <g>
       <use xlink:href="#m617d890b62" x="185.810785" y="168.698531" style="stroke: #000000; stroke-width: 0.6"/>
      </g>
     </g>
    </g>
    <g id="xtick_13">
     <g id="line2d_13">
      <g>
       <use xlink:href="#m617d890b62" x="206.619457" y="168.698531" style="stroke: #000000; stroke-width: 0.6"/>
      </g>
     </g>
    </g>
    <g id="xtick_14">
     <g id="line2d_14">
      <g>
       <use xlink:href="#m617d890b62" x="248.236802" y="168.698531" style="stroke: #000000; stroke-width: 0.6"/>
      </g>
     </g>
    </g>
    <g id="xtick_15">
     <g id="line2d_15">
      <g>
       <use xlink:href="#m617d890b62" x="269.045474" y="168.698531" style="stroke: #000000; stroke-width: 0.6"/>
      </g>
     </g>
    </g>
    <g id="xtick_16">
     <g id="line2d_16">
      <g>
       <use xlink:href="#m617d890b62" x="289.854147" y="168.698531" style="stroke: #000000; stroke-width: 0.6"/>
      </g>
     </g>
    </g>
    <g id="xtick_17">
     <g id="line2d_17">
      <g>
       <use xlink:href="#m617d890b62" x="310.662819" y="168.698531" style="stroke: #000000; stroke-width: 0.6"/>
      </g>
     </g>
    </g>
    <g id="xtick_18">
     <g id="line2d_18">
      <g>
       <use xlink:href="#m617d890b62" x="352.280164" y="168.698531" style="stroke: #000000; stroke-width: 0.6"/>
      </g>
     </g>
    </g>
    <g id="xtick_19">
     <g id="line2d_19">
      <g>
       <use xlink:href="#m617d890b62" x="373.088836" y="168.698531" style="stroke: #000000; stroke-width: 0.6"/>
      </g>
     </g>
    </g>
    <g id="xtick_20">
     <g id="line2d_20">
      <g>
       <use xlink:href="#m617d890b62" x="393.897508" y="168.698531" style="stroke: #000000; stroke-width: 0.6"/>
      </g>
     </g>
    </g>
    <g id="xtick_21">
     <g id="line2d_21">
      <g>
       <use xlink:href="#m617d890b62" x="414.706181" y="168.698531" style="stroke: #000000; stroke-width: 0.6"/>
      </g>
     </g>
    </g>
   </g>
   <g id="matplotlib.axis_2">
    <g id="ytick_1">
     <g id="line2d_22">
      <defs>
       <path id="m51931dc615" d="M 0 0 
L -3.5 0 
" style="stroke: #000000; stroke-width: 0.8"/>
      </defs>
      <g>
       <use xlink:href="#m51931dc615" x="227.42813" y="323.986981" style="stroke: #000000; stroke-width: 0.8"/>
      </g>
     </g>
     <g id="text_5">
      <!-- −1.5 -->
      <g transform="translate(196.145317 327.7862) scale(0.1 -0.1)">
       <use xlink:href="#DejaVuSans-2212"/>
       <use xlink:href="#DejaVuSans-31" x="83.789062"/>
       <use xlink:href="#DejaVuSans-2e" x="147.412109"/>
       <use xlink:href="#DejaVuSans-35" x="179.199219"/>
      </g>
     </g>
    </g>
    <g id="ytick_2">
     <g id="line2d_23">
      <g>
       <use xlink:href="#m51931dc615" x="227.42813" y="272.224165" style="stroke: #000000; stroke-width: 0.8"/>
      </g>
     </g>
     <g id="text_6">
      <!-- −1.0 -->
      <g transform="translate(196.145317 276.023383) scale(0.1 -0.1)">
       <use xlink:href="#DejaVuSans-2212"/>
       <use xlink:href="#DejaVuSans-31" x="83.789062"/>
       <use xlink:href="#DejaVuSans-2e" x="147.412109"/>
       <use xlink:href="#DejaVuSans-30" x="179.199219"/>
      </g>
     </g>
    </g>
    <g id="ytick_3">
     <g id="line2d_24">
      <g>
       <use xlink:href="#m51931dc615" x="227.42813" y="220.461348" style="stroke: #000000; stroke-width: 0.8"/>
      </g>
     </g>
     <g id="text_7">
      <!-- −0.5 -->
      <g transform="translate(196.145317 224.260567) scale(0.1 -0.1)">
       <use xlink:href="#DejaVuSans-2212"/>
       <use xlink:href="#DejaVuSans-30" x="83.789062"/>
       <use xlink:href="#DejaVuSans-2e" x="147.412109"/>
       <use xlink:href="#DejaVuSans-35" x="179.199219"/>
      </g>
     </g>
    </g>
    <g id="ytick_4">
     <g id="line2d_25">
      <g>
       <use xlink:href="#m51931dc615" x="227.42813" y="168.698531" style="stroke: #000000; stroke-width: 0.8"/>
      </g>
     </g>
    </g>
    <g id="ytick_5">
     <g id="line2d_26">
      <g>
       <use xlink:href="#m51931dc615" x="227.42813" y="116.935715" style="stroke: #000000; stroke-width: 0.8"/>
      </g>
     </g>
     <g id="text_8">
      <!-- 0.5 -->
      <g transform="translate(204.525005 120.734934) scale(0.1 -0.1)">
       <use xlink:href="#DejaVuSans-30"/>
       <use xlink:href="#DejaVuSans-2e" x="63.623047"/>
       <use xlink:href="#DejaVuSans-35" x="95.410156"/>
      </g>
     </g>
    </g>
    <g id="ytick_6">
     <g id="line2d_27">
      <g>
       <use xlink:href="#m51931dc615" x="227.42813" y="65.172898" style="stroke: #000000; stroke-width: 0.8"/>
      </g>
     </g>
     <g id="text_9">
      <!-- 1.0 -->
      <g transform="translate(204.525005 68.972117) scale(0.1 -0.1)">
       <use xlink:href="#DejaVuSans-31"/>
       <use xlink:href="#DejaVuSans-2e" x="63.623047"/>
       <use xlink:href="#DejaVuSans-30" x="95.410156"/>
      </g>
     </g>
    </g>
    <g id="ytick_7">
     <g id="line2d_28">
      <g>
       <use xlink:href="#m51931dc615" x="227.42813" y="13.410082" style="stroke: #000000; stroke-width: 0.8"/>
      </g>
     </g>
     <g id="text_10">
      <!-- 1.5 -->
      <g transform="translate(204.525005 17.2093) scale(0.1 -0.1)">
       <use xlink:href="#DejaVuSans-31"/>
       <use xlink:href="#DejaVuSans-2e" x="63.623047"/>
       <use xlink:href="#DejaVuSans-35" x="95.410156"/>
      </g>
     </g>
    </g>
    <g id="ytick_8">
     <g id="line2d_29">
      <defs>
       <path id="m29e4214f49" d="M 0 0 
L -2 0 
" style="stroke: #000000; stroke-width: 0.6"/>
      </defs>
      <g>
       <use xlink:href="#m29e4214f49" x="227.42813" y="313.634418" style="stroke: #000000; stroke-width: 0.6"/>
      </g>
     </g>
    </g>
    <g id="ytick_9">
     <g id="line2d_30">
      <g>
       <use xlink:href="#m29e4214f49" x="227.42813" y="303.281855" style="stroke: #000000; stroke-width: 0.6"/>
      </g>
     </g>
    </g>
    <g id="ytick_10">
     <g id="line2d_31">
      <g>
       <use xlink:href="#m29e4214f49" x="227.42813" y="292.929291" style="stroke: #000000; stroke-width: 0.6"/>
      </g>
     </g>
    </g>
    <g id="ytick_11">
     <g id="line2d_32">
      <g>
       <use xlink:href="#m29e4214f49" x="227.42813" y="282.576728" style="stroke: #000000; stroke-width: 0.6"/>
      </g>
     </g>
    </g>
    <g id="ytick_12">
     <g id="line2d_33">
      <g>
       <use xlink:href="#m29e4214f49" x="227.42813" y="261.871601" style="stroke: #000000; stroke-width: 0.6"/>
      </g>
     </g>
    </g>
    <g id="ytick_13">
     <g id="line2d_34">
      <g>
       <use xlink:href="#m29e4214f49" x="227.42813" y="251.519038" style="stroke: #000000; stroke-width: 0.6"/>
      </g>
     </g>
    </g>
    <g id="ytick_14">
     <g id="line2d_35">
      <g>
       <use xlink:href="#m29e4214f49" x="227.42813" y="241.166475" style="stroke: #000000; stroke-width: 0.6"/>
      </g>
     </g>
    </g>
    <g id="ytick_15">
     <g id="line2d_36">
      <g>
       <use xlink:href="#m29e4214f49" x="227.42813" y="230.813911" style="stroke: #000000; stroke-width: 0.6"/>
      </g>
     </g>
    </g>
    <g id="ytick_16">
     <g id="line2d_37">
      <g>
       <use xlink:href="#m29e4214f49" x="227.42813" y="210.108785" style="stroke: #000000; stroke-width: 0.6"/>
      </g>
     </g>
    </g>
    <g id="ytick_17">
     <g id="line2d_38">
      <g>
       <use xlink:href="#m29e4214f49" x="227.42813" y="199.756221" style="stroke: #000000; stroke-width: 0.6"/>
      </g>
     </g>
    </g>
    <g id="ytick_18">
     <g id="line2d_39">
      <g>
       <use xlink:href="#m29e4214f49" x="227.42813" y="189.403658" style="stroke: #000000; stroke-width: 0.6"/>
      </g>
     </g>
    </g>
    <g id="ytick_19">
     <g id="line2d_40">
      <g>
       <use xlink:href="#m29e4214f49" x="227.42813" y="179.051095" style="stroke: #000000; stroke-width: 0.6"/>
      </g>
     </g>
    </g>
    <g id="ytick_20">
     <g id="line2d_41">
      <g>
       <use xlink:href="#m29e4214f49" x="227.42813" y="158.345968" style="stroke: #000000; stroke-width: 0.6"/>
      </g>
     </g>
    </g>
    <g id="ytick_21">
     <g id="line2d_42">
      <g>
       <use xlink:href="#m29e4214f49" x="227.42813" y="147.993405" style="stroke: #000000; stroke-width: 0.6"/>
      </g>
     </g>
    </g>
    <g id="ytick_22">
     <g id="line2d_43">
      <g>
       <use xlink:href="#m29e4214f49" x="227.42813" y="137.640841" style="stroke: #000000; stroke-width: 0.6"/>
      </g>
     </g>
    </g>
    <g id="ytick_23">
     <g id="line2d_44">
      <g>
       <use xlink:href="#m29e4214f49" x="227.42813" y="127.288278" style="stroke: #000000; stroke-width: 0.6"/>
      </g>
     </g>
    </g>
    <g id="ytick_24">
     <g id="line2d_45">
      <g>
       <use xlink:href="#m29e4214f49" x="227.42813" y="106.583151" style="stroke: #000000; stroke-width: 0.6"/>
      </g>
     </g>
    </g>
    <g id="ytick_25">
     <g id="line2d_46">
      <g>
       <use xlink:href="#m29e4214f49" x="227.42813" y="96.230588" style="stroke: #000000; stroke-width: 0.6"/>
      </g>
     </g>
    </g>
    <g id="ytick_26">
     <g id="line2d_47">
      <g>
       <use xlink:href="#m29e4214f49" x="227.42813" y="85.878025" style="stroke: #000000; stroke-width: 0.6"/>
      </g>
     </g>
    </g>
    <g id="ytick_27">
     <g id="line2d_48">
      <g>
       <use xlink:href="#m29e4214f49" x="227.42813" y="75.525461" style="stroke: #000000; stroke-width: 0.6"/>
      </g>
     </g>
    </g>
    <g id="ytick_28">
     <g id="line2d_49">
      <g>
       <use xlink:href="#m29e4214f49" x="227.42813" y="54.820335" style="stroke: #000000; stroke-width: 0.6"/>
      </g>
     </g>
    </g>
    <g id="ytick_29">
     <g id="line2d_50">
      <g>
       <use xlink:href="#m29e4214f49" x="227.42813" y="44.467772" style="stroke: #000000; stroke-width: 0.6"/>
      </g>
     </g>
    </g>
    <g id="ytick_30">
     <g id="line2d_51">
      <g>
       <use xlink:href="#m29e4214f49" x="227.42813" y="34.115208" style="stroke: #000000; stroke-width: 0.6"/>
      </g>
     </g>
    </g>
    <g id="ytick_31">
     <g id="line2d_52">
      <g>
       <use xlink:href="#m29e4214f49" x="227.42813" y="23.762645" style="stroke: #000000; stroke-width: 0.6"/>
      </g>
     </g>
    </g>
   </g>
   <g id="line2d_53">
    <path d="M 19.341406 168.698531 
L 33.784533 191.094379 
L 41.618983 202.865167 
L 49.422352 214.114859 
L 54.302416 220.839738 
L 60.652398 229.161346 
L 66.393015 236.208484 
L 71.182644 241.702513 
L 76.179302 247.026935 
L 79.591539 250.408723 
L 84.087895 254.532509 
L 87.339564 257.269406 
L 91.662826 260.576699 
L 95.55835 263.222007 
L 99.62247 265.633293 
L 102.973081 267.347229 
L 106.382591 268.832195 
L 109.793324 270.052285 
L 113.163164 270.993882 
L 116.848579 271.720518 
L 120.154854 272.101102 
L 123.329188 272.224128 
L 125.957818 272.146061 
L 128.726741 271.887656 
L 131.407501 271.465687 
L 135.000702 270.636262 
L 138.778392 269.440897 
L 141.792917 268.251774 
L 145.451933 266.531689 
L 149.668382 264.179782 
L 153.917514 261.418372 
L 157.22733 259.002482 
L 160.81616 256.128391 
L 163.881476 253.470017 
L 168.758932 248.868319 
L 172.485239 245.058483 
L 177.319036 239.758208 
L 182.604299 233.531028 
L 188.721424 225.811377 
L 192.938806 220.201519 
L 198.225408 212.877394 
L 204.051514 204.481918 
L 212.442579 191.92134 
L 221.431483 178.058372 
L 242.987539 144.602534 
L 250.548982 133.290525 
L 257.539755 123.239118 
L 263.707384 114.787788 
L 268.015695 109.157125 
L 274.083435 101.659378 
L 278.599531 96.440583 
L 283.209442 91.459857 
L 287.629002 87.03564 
L 290.430172 84.418516 
L 294.524075 80.86592 
L 298.588588 77.670625 
L 302.531128 74.898505 
L 305.286074 73.158069 
L 309.5606 70.785769 
L 312.296671 69.480706 
L 315.361987 68.21975 
L 319.166393 66.95425 
L 322.388947 66.144668 
L 325.984501 65.527915 
L 329.564386 65.215807 
L 332.680264 65.190137 
L 335.107932 65.32888 
L 338.201203 65.706784 
L 340.900431 66.220078 
L 344.43152 67.148297 
L 347.857018 68.324518 
L 351.004115 69.641797 
L 355.116923 71.699788 
L 358.902662 73.924779 
L 362.707416 76.472783 
L 366.569392 79.370186 
L 370.856085 82.941283 
L 375.702985 87.410742 
L 379.301293 91.011658 
L 384.426224 96.533287 
L 389.127058 101.978532 
L 394.295935 108.352591 
L 399.438456 115.05872 
L 405.168506 122.909801 
L 410.980573 131.222814 
L 417.860029 141.429978 
L 427.38551 156.024407 
L 435.514853 168.698531 
L 435.514853 168.698531 
" clip-path="url(#p4227571855)" style="fill: none; stroke: #0000ff; stroke-linecap: square"/>
   </g>
   <g id="line2d_54">
    <path d="M 19.341406 168.698531 
L 33.04802 179.333827 
L 42.167599 186.185974 
L 50.710563 192.307021 
L 57.322423 196.78024 
L 63.857249 200.926782 
L 67.910706 203.343751 
L 73.216705 206.310208 
L 79.315381 209.420753 
L 84.372938 211.739664 
L 90.782797 214.316646 
L 95.000601 215.780819 
L 99.400183 217.104647 
L 103.009495 218.031504 
L 108.144011 219.097095 
L 111.564374 219.639276 
L 116.2168 220.15854 
L 121.437238 220.438974 
L 125.409045 220.437176 
L 129.815053 220.217613 
L 135.049197 219.660771 
L 139.38184 218.959009 
L 143.475202 218.098448 
L 147.228691 217.143479 
L 151.264053 215.943403 
L 156.581938 214.094994 
L 160.910208 212.374058 
L 166.017934 210.104007 
L 171.745276 207.266592 
L 177.199957 204.295987 
L 183.006262 200.869281 
L 188.260174 197.554905 
L 194.744147 193.216737 
L 202.667757 187.600986 
L 211.903424 180.720154 
L 224.35024 171.103006 
L 243.283584 156.425651 
L 252.141394 149.830354 
L 260.211335 144.112062 
L 266.75032 139.74217 
L 271.589901 136.687268 
L 276.227984 133.919653 
L 281.856124 130.791415 
L 287.860635 127.756077 
L 293.443042 125.235244 
L 299.798041 122.741997 
L 304.841495 121.063178 
L 309.267132 119.817121 
L 312.55927 119.031426 
L 316.44697 118.261696 
L 321.589127 117.510777 
L 325.075638 117.176849 
L 329.171196 116.966927 
L 334.286289 116.982448 
L 337.185083 117.128178 
L 342.110308 117.601987 
L 347.060449 118.362726 
L 351.765342 119.346329 
L 356.139688 120.484241 
L 359.849482 121.614238 
L 365.126164 123.474937 
L 369.688269 125.315352 
L 374.680122 127.564502 
L 378.66544 129.528445 
L 384.605071 132.716253 
L 390.238398 136.007271 
L 396.616132 140.017072 
L 404.099475 145.057902 
L 411.558449 150.382357 
L 421.307557 157.680614 
L 435.514853 168.698531 
L 435.514853 168.698531 
" clip-path="url(#p4227571855)" style="fill: none; stroke: #ff0000; stroke-linecap: square"/>
   </g>
   <g id="line2d_55">
    <path d="M 19.341406 168.698531 
L 32.91613 137.095325 
L 41.546609 117.608781 
L 48.274631 103.002192 
L 54.360741 90.368621 
L 59.884496 79.471743 
L 64.682217 70.507818 
L 69.577428 61.892806 
L 74.284506 54.158273 
L 78.55106 47.646176 
L 82.902223 41.522246 
L 86.797568 36.504534 
L 89.866799 32.872108 
L 93.583599 28.864338 
L 96.424659 26.097089 
L 98.63847 24.122391 
L 102.279017 21.227152 
L 105.118268 19.277899 
L 107.893513 17.637866 
L 110.728584 16.236288 
L 113.71074 15.063424 
L 115.994552 14.375652 
L 118.944612 13.758864 
L 121.778439 13.455745 
L 124.52289 13.433005 
L 127.055725 13.648515 
L 129.898327 14.160333 
L 133.248632 15.128827 
L 135.899434 16.173625 
L 138.346677 17.355079 
L 141.690697 19.303097 
L 143.593861 20.582112 
L 146.482158 22.756401 
L 149.944473 25.728067 
L 153.105207 28.78213 
L 156.328052 32.224156 
L 159.313199 35.700688 
L 162.450805 39.645775 
L 166.706513 45.457609 
L 169.608638 49.714122 
L 173.670841 56.053766 
L 177.710502 62.77831 
L 181.526003 69.49184 
L 186.773131 79.257137 
L 192.01913 89.58116 
L 196.947532 99.73329 
L 203.461676 113.727974 
L 209.653794 127.525472 
L 217.416356 145.315507 
L 248.229433 216.668871 
L 254.570097 230.566095 
L 260.358603 242.761589 
L 264.8025 251.745368 
L 269.285941 260.430287 
L 273.996139 269.101219 
L 278.526207 276.962281 
L 282.000221 282.649659 
L 286.26765 289.205463 
L 290.347979 295.006551 
L 293.882276 299.644801 
L 296.395692 302.717233 
L 300.095759 306.887938 
L 303.79654 310.628209 
L 307.490632 313.919972 
L 309.601016 315.598424 
L 312.570549 317.707293 
L 315.96799 319.75254 
L 318.968378 321.228523 
L 321.026007 322.060002 
L 323.959111 322.989259 
L 326.703536 323.584823 
L 328.837669 323.864227 
L 330.823455 323.979549 
L 333.168196 323.936035 
L 335.845295 323.648542 
L 338.303628 323.161612 
L 340.827113 322.440505 
L 343.742477 321.329706 
L 346.569254 319.970329 
L 349.177711 318.471491 
L 352.306086 316.367832 
L 354.85588 314.409383 
L 357.391168 312.248007 
L 361.022652 308.786637 
L 364.589834 304.976617 
L 368.411997 300.456024 
L 372.372389 295.309453 
L 375.434259 291.019349 
L 379.265724 285.283944 
L 382.912297 279.462783 
L 386.303618 273.747484 
L 391.663008 264.160266 
L 396.807742 254.368591 
L 401.08956 245.822753 
L 406.968059 233.572851 
L 413.168077 220.101602 
L 420.125241 204.45526 
L 429.971417 181.679783 
L 435.514853 168.698531 
L 435.514853 168.698531 
" clip-path="url(#p4227571855)" style="fill: none; stroke: #008000; stroke-linecap: square"/>
   </g>
   <g id="patch_3">
    <path d="M 227.42813 330.19353 
L 227.42813 7.2 
" style="fill: none; stroke: #000000; stroke-width: 0.8; stroke-linejoin: miter; stroke-linecap: square"/>
   </g>
   <g id="patch_4">
    <path d="M 11.017937 168.698531 
L 443.838322 168.698531 
" style="fill: none; stroke: #000000; stroke-width: 0.8; stroke-linejoin: miter; stroke-linecap: square"/>
   </g>
   <g id="text_11">
    <!-- $\frac{1}{2}\,f$ -->
    <g transform="translate(322.511491 99.750588) scale(0.16 -0.16)">
     <defs>
      <path id="Cmr10-31" d="M 594 0 
L 594 225 
Q 1394 225 1394 428 
L 1394 3788 
Q 1063 3628 556 3628 
L 556 3853 
Q 1341 3853 1741 4263 
L 1831 4263 
Q 1853 4263 1873 4245 
Q 1894 4228 1894 4206 
L 1894 428 
Q 1894 225 2694 225 
L 2694 0 
L 594 0 
z
" transform="scale(0.015625)"/>
      <path id="Cmr10-32" d="M 319 0 
L 319 172 
Q 319 188 331 206 
L 1325 1306 
Q 1550 1550 1690 1715 
Q 1831 1881 1968 2097 
Q 2106 2313 2186 2536 
Q 2266 2759 2266 3009 
Q 2266 3272 2169 3511 
Q 2072 3750 1880 3894 
Q 1688 4038 1416 4038 
Q 1138 4038 916 3870 
Q 694 3703 603 3438 
Q 628 3444 672 3444 
Q 816 3444 917 3347 
Q 1019 3250 1019 3097 
Q 1019 2950 917 2848 
Q 816 2747 672 2747 
Q 522 2747 420 2851 
Q 319 2956 319 3097 
Q 319 3338 409 3548 
Q 500 3759 670 3923 
Q 841 4088 1055 4175 
Q 1269 4263 1509 4263 
Q 1875 4263 2190 4108 
Q 2506 3953 2690 3670 
Q 2875 3388 2875 3009 
Q 2875 2731 2753 2481 
Q 2631 2231 2440 2026 
Q 2250 1822 1953 1562 
Q 1656 1303 1563 1216 
L 838 519 
L 1453 519 
Q 1906 519 2211 526 
Q 2516 534 2534 550 
Q 2609 631 2688 1141 
L 2875 1141 
L 2694 0 
L 319 0 
z
" transform="scale(0.015625)"/>
      <path id="Cmmi10-66" d="M 622 -1056 
Q 741 -1147 909 -1147 
Q 1138 -1147 1281 -641 
Q 1341 -397 1606 966 
L 1900 2534 
L 1350 2534 
Q 1288 2534 1288 2619 
Q 1313 2759 1369 2759 
L 1941 2759 
L 2016 3175 
Q 2053 3369 2084 3508 
Q 2116 3647 2152 3765 
Q 2188 3884 2259 4031 
Q 2369 4241 2555 4377 
Q 2741 4513 2956 4513 
Q 3097 4513 3230 4461 
Q 3363 4409 3447 4306 
Q 3531 4203 3531 4063 
Q 3531 3900 3423 3779 
Q 3316 3659 3163 3659 
Q 3059 3659 2986 3723 
Q 2913 3788 2913 3891 
Q 2913 4031 3008 4136 
Q 3103 4241 3244 4256 
Q 3125 4347 2950 4347 
Q 2853 4347 2767 4256 
Q 2681 4166 2656 4063 
Q 2616 3900 2478 3181 
L 2400 2759 
L 3059 2759 
Q 3122 2759 3122 2675 
Q 3119 2659 3109 2620 
Q 3100 2581 3083 2557 
Q 3066 2534 3041 2534 
L 2356 2534 
L 2059 972 
Q 2003 631 1929 279 
Q 1856 -72 1723 -442 
Q 1591 -813 1384 -1063 
Q 1178 -1313 897 -1313 
Q 681 -1313 511 -1189 
Q 341 -1066 341 -863 
Q 341 -700 445 -579 
Q 550 -459 709 -459 
Q 816 -459 887 -523 
Q 959 -588 959 -691 
Q 959 -828 857 -942 
Q 756 -1056 622 -1056 
z
" transform="scale(0.015625)"/>
     </defs>
     <use xlink:href="#Cmr10-31" transform="translate(0 38.373438) scale(0.7)"/>
     <use xlink:href="#Cmr10-32" transform="translate(0 -39.503125) scale(0.7)"/>
     <use xlink:href="#Cmmi10-66" transform="translate(62.132454 0.873437)"/>
     <path d="M 0 13.373437 
L 0 19.623437 
L 35 19.623437 
L 35 13.373437 
L 0 13.373437 
z
"/>
    </g>
   </g>
   <g id="text_12">
    <!-- $f$ -->
    <g transform="translate(327.551491 48.850272) scale(0.16 -0.16)">
     <use xlink:href="#Cmmi10-66" transform="translate(0 0.484375)"/>
    </g>
   </g>
   <g id="text_13">
    <!-- $-\frac{3}{2}\, f$ -->
    <g transform="translate(316.351491 306.881855) scale(0.16 -0.16)">
     <defs>
      <path id="Cmsy10-a1" d="M 653 1472 
Q 600 1472 565 1512 
Q 531 1553 531 1600 
Q 531 1647 565 1687 
Q 600 1728 653 1728 
L 4325 1728 
Q 4375 1728 4408 1687 
Q 4441 1647 4441 1600 
Q 4441 1553 4408 1512 
Q 4375 1472 4325 1472 
L 653 1472 
z
" transform="scale(0.015625)"/>
      <path id="Cmr10-33" d="M 609 494 
Q 759 275 1012 169 
Q 1266 63 1556 63 
Q 1928 63 2084 380 
Q 2241 697 2241 1100 
Q 2241 1281 2208 1462 
Q 2175 1644 2097 1800 
Q 2019 1956 1883 2050 
Q 1747 2144 1550 2144 
L 1125 2144 
Q 1069 2144 1069 2203 
L 1069 2259 
Q 1069 2309 1125 2309 
L 1478 2338 
Q 1703 2338 1851 2506 
Q 2000 2675 2069 2917 
Q 2138 3159 2138 3378 
Q 2138 3684 1994 3881 
Q 1850 4078 1556 4078 
Q 1313 4078 1091 3986 
Q 869 3894 738 3706 
Q 750 3709 759 3711 
Q 769 3713 781 3713 
Q 925 3713 1022 3613 
Q 1119 3513 1119 3372 
Q 1119 3234 1022 3134 
Q 925 3034 781 3034 
Q 641 3034 541 3134 
Q 441 3234 441 3372 
Q 441 3647 606 3850 
Q 772 4053 1033 4158 
Q 1294 4263 1556 4263 
Q 1750 4263 1965 4205 
Q 2181 4147 2356 4039 
Q 2531 3931 2642 3762 
Q 2753 3594 2753 3378 
Q 2753 3109 2633 2881 
Q 2513 2653 2303 2487 
Q 2094 2322 1844 2241 
Q 2122 2188 2372 2031 
Q 2622 1875 2773 1631 
Q 2925 1388 2925 1106 
Q 2925 753 2731 467 
Q 2538 181 2222 20 
Q 1906 -141 1556 -141 
Q 1256 -141 954 -26 
Q 653 88 461 316 
Q 269 544 269 863 
Q 269 1022 375 1128 
Q 481 1234 641 1234 
Q 744 1234 830 1186 
Q 916 1138 964 1050 
Q 1013 963 1013 863 
Q 1013 706 903 600 
Q 794 494 641 494 
L 609 494 
z
" transform="scale(0.015625)"/>
     </defs>
     <use xlink:href="#Cmsy10-a1" transform="translate(0 0.33125)"/>
     <use xlink:href="#Cmr10-33" transform="translate(77.685547 39.373438) scale(0.7)"/>
     <use xlink:href="#Cmr10-32" transform="translate(77.685547 -40.045312) scale(0.7)"/>
     <use xlink:href="#Cmmi10-66" transform="translate(139.818001 0.33125)"/>
     <path d="M 77.685547 12.83125 
L 77.685547 19.08125 
L 112.685547 19.08125 
L 112.685547 12.83125 
L 77.685547 12.83125 
z
"/>
    </g>
   </g>
  </g>
 </g>
 <defs>
  <clipPath id="p4227571855">
   <rect x="11.017937" y="7.2" width="432.820385" height="322.99353"/>
  </clipPath>
 </defs>
</svg>
